<mxfile host="app.diagrams.net" modified="2023-08-15T23:57:35.840Z" agent="Mozilla/5.0 (Windows NT 10.0; Win64; x64) AppleWebKit/537.36 (KHTML, like Gecko) Chrome/115.0.0.0 Safari/537.36" etag="v7KUUKzmbbSyUKqwUkLy" version="21.6.8" type="github">
  <diagram name="Page-1" id="6O_qish3dsMQpxDmSz9L">
    <mxGraphModel dx="1514" dy="1010" grid="0" gridSize="10" guides="1" tooltips="1" connect="1" arrows="1" fold="1" page="0" pageScale="1" pageWidth="1600" pageHeight="900" math="0" shadow="0">
      <root>
        <mxCell id="0" />
        <mxCell id="1" parent="0" />
        <mxCell id="2" value="Node 1" style="whiteSpace=wrap;strokeWidth=2;" parent="1" vertex="1">
          <mxGeometry width="65" height="34" as="geometry" />
        </mxCell>
        <mxCell id="3" value="Node 2" style="whiteSpace=wrap;strokeWidth=2;" parent="1" vertex="1">
          <mxGeometry x="115" width="65" height="34" as="geometry" />
        </mxCell>
        <mxCell id="7" value="" style="curved=1;startArrow=none;endArrow=block;exitX=0.9947115384615385;exitY=0.5;entryX=-0.005288461538461539;entryY=0.5;" parent="1" source="2" target="3" edge="1">
          <mxGeometry relative="1" as="geometry">
            <Array as="points" />
          </mxGeometry>
        </mxCell>
        <mxCell id="8" value="" style="curved=1;startArrow=none;endArrow=block;exitX=0.989423076923077;exitY=0.5;entryX=0.004807692307692308;entryY=0.5;" parent="1" source="3" edge="1">
          <mxGeometry relative="1" as="geometry">
            <Array as="points" />
            <mxPoint x="228.99999999999977" y="17" as="targetPoint" />
          </mxGeometry>
        </mxCell>
        <mxCell id="GNmN8JbiuyzItX-1qESR-10" value="Node 1" style="whiteSpace=wrap;strokeWidth=2;" parent="1" vertex="1">
          <mxGeometry x="-0.5" y="278" width="65" height="34" as="geometry" />
        </mxCell>
        <mxCell id="GNmN8JbiuyzItX-1qESR-11" value="Node 2" style="whiteSpace=wrap;strokeWidth=2;" parent="1" vertex="1">
          <mxGeometry x="114.5" y="278" width="65" height="34" as="geometry" />
        </mxCell>
        <mxCell id="GNmN8JbiuyzItX-1qESR-12" value="Node 3" style="whiteSpace=wrap;strokeWidth=2;" parent="1" vertex="1">
          <mxGeometry x="228.5" y="278" width="65" height="34" as="geometry" />
        </mxCell>
        <mxCell id="GNmN8JbiuyzItX-1qESR-13" value="Node 4" style="whiteSpace=wrap;strokeWidth=2;" parent="1" vertex="1">
          <mxGeometry x="343.5" y="278" width="65" height="34" as="geometry" />
        </mxCell>
        <mxCell id="GNmN8JbiuyzItX-1qESR-14" value="Node 5" style="whiteSpace=wrap;strokeWidth=2;" parent="1" vertex="1">
          <mxGeometry x="458.5" y="278" width="65" height="34" as="geometry" />
        </mxCell>
        <mxCell id="GNmN8JbiuyzItX-1qESR-15" value="" style="curved=1;startArrow=none;endArrow=block;exitX=0.9947115384615385;exitY=0.5;entryX=-0.005288461538461539;entryY=0.5;" parent="1" source="GNmN8JbiuyzItX-1qESR-10" target="GNmN8JbiuyzItX-1qESR-11" edge="1">
          <mxGeometry relative="1" as="geometry">
            <Array as="points" />
          </mxGeometry>
        </mxCell>
        <mxCell id="GNmN8JbiuyzItX-1qESR-16" value="" style="curved=1;startArrow=none;endArrow=block;exitX=0.989423076923077;exitY=0.5;entryX=0.004807692307692308;entryY=0.5;" parent="1" source="GNmN8JbiuyzItX-1qESR-11" target="GNmN8JbiuyzItX-1qESR-12" edge="1">
          <mxGeometry relative="1" as="geometry">
            <Array as="points" />
          </mxGeometry>
        </mxCell>
        <mxCell id="GNmN8JbiuyzItX-1qESR-17" value="" style="curved=1;startArrow=none;endArrow=block;exitX=0.9995192307692308;exitY=0.5;entryX=-0.0004807692307692308;entryY=0.5;" parent="1" source="GNmN8JbiuyzItX-1qESR-12" target="GNmN8JbiuyzItX-1qESR-13" edge="1">
          <mxGeometry relative="1" as="geometry">
            <Array as="points" />
          </mxGeometry>
        </mxCell>
        <mxCell id="GNmN8JbiuyzItX-1qESR-18" value="" style="curved=1;startArrow=none;endArrow=block;exitX=1.0034855769230768;exitY=0.5;entryX=0.0034855769230769233;entryY=0.5;" parent="1" source="GNmN8JbiuyzItX-1qESR-13" target="GNmN8JbiuyzItX-1qESR-14" edge="1">
          <mxGeometry relative="1" as="geometry">
            <Array as="points" />
          </mxGeometry>
        </mxCell>
        <mxCell id="GNmN8JbiuyzItX-1qESR-20" value="1" style="text;html=1;strokeColor=none;fillColor=none;align=center;verticalAlign=middle;whiteSpace=wrap;rounded=0;labelBackgroundColor=default;" parent="1" vertex="1">
          <mxGeometry x="2" y="2" width="60" height="30" as="geometry" />
        </mxCell>
        <mxCell id="GNmN8JbiuyzItX-1qESR-23" value="2" style="text;html=1;strokeColor=none;fillColor=none;align=center;verticalAlign=middle;whiteSpace=wrap;rounded=0;labelBackgroundColor=default;" parent="1" vertex="1">
          <mxGeometry x="117" y="2" width="60" height="30" as="geometry" />
        </mxCell>
        <mxCell id="GNmN8JbiuyzItX-1qESR-25" value="15" style="text;html=1;strokeColor=none;fillColor=none;align=center;verticalAlign=middle;whiteSpace=wrap;rounded=0;labelBackgroundColor=default;" parent="1" vertex="1">
          <mxGeometry x="461" y="282" width="60" height="30" as="geometry" />
        </mxCell>
        <mxCell id="GNmN8JbiuyzItX-1qESR-26" value="14" style="text;html=1;strokeColor=none;fillColor=none;align=center;verticalAlign=middle;whiteSpace=wrap;rounded=0;labelBackgroundColor=default;" parent="1" vertex="1">
          <mxGeometry x="346.5" y="280" width="60" height="30" as="geometry" />
        </mxCell>
        <mxCell id="GNmN8JbiuyzItX-1qESR-27" value="13" style="text;html=1;strokeColor=none;fillColor=none;align=center;verticalAlign=middle;whiteSpace=wrap;rounded=0;labelBackgroundColor=default;" parent="1" vertex="1">
          <mxGeometry x="231" y="280" width="60" height="30" as="geometry" />
        </mxCell>
        <mxCell id="GNmN8JbiuyzItX-1qESR-28" value="12" style="text;html=1;strokeColor=none;fillColor=none;align=center;verticalAlign=middle;whiteSpace=wrap;rounded=0;labelBackgroundColor=default;" parent="1" vertex="1">
          <mxGeometry x="117" y="280" width="60" height="30" as="geometry" />
        </mxCell>
        <mxCell id="GNmN8JbiuyzItX-1qESR-29" value="11" style="text;html=1;strokeColor=none;fillColor=none;align=center;verticalAlign=middle;whiteSpace=wrap;rounded=0;labelBackgroundColor=default;" parent="1" vertex="1">
          <mxGeometry x="2" y="280" width="60" height="30" as="geometry" />
        </mxCell>
        <mxCell id="GNmN8JbiuyzItX-1qESR-31" value="" style="shape=flexArrow;endArrow=classic;html=1;rounded=0;fontColor=none;noLabel=1;labelBackgroundColor=default;" parent="1" edge="1">
          <mxGeometry width="50" height="50" relative="1" as="geometry">
            <mxPoint x="30" y="415" as="sourcePoint" />
            <mxPoint x="34" y="341" as="targetPoint" />
          </mxGeometry>
        </mxCell>
        <mxCell id="GNmN8JbiuyzItX-1qESR-33" value="" style="rhombus;whiteSpace=wrap;html=1;fillColor=#60a917;strokeColor=#2D7600;fontColor=#ffffff;" parent="1" vertex="1">
          <mxGeometry x="6.5" y="-10.5" width="51" height="55" as="geometry" />
        </mxCell>
        <mxCell id="GNmN8JbiuyzItX-1qESR-35" value="" style="rhombus;whiteSpace=wrap;html=1;fillColor=#60a917;strokeColor=#2D7600;fontColor=#ffffff;" parent="1" vertex="1">
          <mxGeometry x="6.5" y="267.5" width="51" height="55" as="geometry" />
        </mxCell>
      </root>
    </mxGraphModel>
  </diagram>
</mxfile>
